<svg width="64" height="64" viewBox="0 0 64 64" fill="none" xmlns="http://www.w3.org/2000/svg" role="img" aria-label="Creative Chaos logo">
  <defs>
    <linearGradient id="g" x1="0" y1="0" x2="64" y2="64">
      <stop offset="0" stop-color="#FFD86B"/>
      <stop offset="1" stop-color="#B6820E"/>
    </linearGradient>
  </defs>
  <rect rx="14" width="64" height="64" fill="#101935" />
  <circle cx="32" cy="32" r="22" fill="url(#g)" opacity="0.15"/>
  <path d="M38.5 24.5c-2.1-2.2-4.6-3.3-7.6-3.3-6.2 0-10.9 4.7-10.9 10.8 0 6.2 4.7 10.9 10.9 10.9 3 0 5.5-1.1 7.6-3.3" stroke="#E7C96A" stroke-width="3" stroke-linecap="round"/>
  <path d="M46 24.5c-2.1-2.2-4.6-3.3-7.6-3.3-6.2 0-10.9 4.7-10.9 10.8 0 6.2 4.7 10.9 10.9 10.9 3 0 5.5-1.1 7.6-3.3" stroke="#F1DA8D" stroke-width="3" stroke-linecap="round"/>
</svg>
